<?xml version="1.0" encoding="utf-8"?>
<!-- Generator: Adobe Illustrator 19.0.0, SVG Export Plug-In . SVG Version: 6.00 Build 0)  -->
<svg version="1.1" id="Calque_1" xmlns="http://www.w3.org/2000/svg" xmlns:xlink="http://www.w3.org/1999/xlink" x="0px" y="0px"
	 viewBox="0 0 53.8 36.5" style="enable-background:new 0 0 53.8 36.5;" xml:space="preserve">
<style type="text/css">
	.st0{fill:#018AC1;}
</style>
<path id="XMLID_63_" class="st0" d="M6.7,23.1l2-0.3v-9.4h-2v-2h2.6V8.7l3.2,0l0.6-1.2h2.5l0.6,1.2c0,0,3.4,0,3.4,0l0-2h-2.2
	l-0.6-1.2l-5,0l-0.6,1.2H9.4c-1.5,0-2.1,1.2-2.1,2v0.8H4.7v5.9h2V23.1z M21.6,9.7v-1h-2v1.7L21.6,9.7z M15.9,10.4v1.3l1.5-0.5v-0.7
	H15.9z M13.3,10.4v1.4h1.5v-1.4H13.3z M12.3,10.4h-1.5v1.4h1.5V10.4z M10.5,16.2v6.2l2.3-0.4v-5.6l1.2-0.4v5.9l2.5-0.4v-6.4l1.2-0.4
	v6.6l2.5-0.4v-7.1l1.2-0.4v7.3l2.5-0.4v-7.8l1.2-0.4v7.2l1.6-2.2c0,0,1.3-0.4,2.2-0.6v-5.3L42,12v1.7c0.5-0.1,1-0.1,1.5-0.1v-2.2
	c0-0.5-0.4-1-1-1.1L29.2,9.1c-0.5,0-1.4,0.1-1.9,0.2l-15.8,5.6C11,15.1,10.5,15.7,10.5,16.2z M46,15.3c-0.6-0.2-1.5-0.2-2.5-0.2
	c-0.5,0-1,0.1-1.5,0.1c-2.6,0.3-5.9,1-8.6,1.6c-1.7,0.4-5.5,1.4-5.5,1.4l-2.4,3.3L4.5,25c-0.1,4.4,3.3,5.1,3.3,5.1h3.5
	c0.5-0.5,1.5-0.8,2.7-0.8c1.2,0,2.2,0.3,2.7,0.8h3.3c0.5-0.5,1.5-0.8,2.7-0.8c1.2,0,2.2,0.3,2.7,0.8h3.3c0.5-0.5,1.5-0.8,2.7-0.8
	c1.2,0,2.2,0.3,2.7,0.8h11.3c1.8-3-2.2-4.3-2.2-4.3s4.3-4.4,5.3-6.2C49.4,17.6,49.7,16.4,46,15.3z M39.1,22.9
	c-0.6,0.6-1.5,0.3-2.2-0.6c-0.4-0.5-0.6-1-0.6-1.5c0-0.3,0.2-0.6,0.4-0.8c0.1-0.1,0.3-0.2,0.4-0.3c0.2-0.1,0.4-0.1,0.6,0
	c0.1,0,0.2,0.1,0.3,0.1c0.3,0.1,0.6,0.4,0.9,0.7C39.7,21.5,39.7,22.4,39.1,22.9z"/>
</svg>
