<?xml version="1.0" encoding="utf-8"?>
<!-- Generator: Adobe Illustrator 19.0.0, SVG Export Plug-In . SVG Version: 6.00 Build 0)  -->
<svg version="1.1" id="Calque_1" xmlns="http://www.w3.org/2000/svg" xmlns:xlink="http://www.w3.org/1999/xlink" x="0px" y="0px"
	 viewBox="0 0 4.8 4.8" style="enable-background:new 0 0 4.8 4.8;" xml:space="preserve">
<style type="text/css">
	.st0{fill-rule:evenodd;clip-rule:evenodd;fill:#68747D;}
	.st1{fill:#BCC8CF;}
</style>
<path id="XMLID_143_" class="st0" d="M2.4,0c1.3,0,2.3,1.1,2.3,2.4c0,1.3-1,2.4-2.3,2.4C1.1,4.8,0,3.7,0,2.4C0,1.1,1.1,0,2.4,0z"/>
<path id="XMLID_130_" class="st1" d="M1.5,1.6V1.3c0,0,0-0.1,0.1-0.1c0,0,0.1,0,0.1,0.1v0.3C1.6,1.6,1.6,1.7,1.5,1.6
	C1.5,1.7,1.5,1.6,1.5,1.6L1.5,1.6z M2.8,1.7C2.8,1.7,2.8,1.6,2.8,1.7l0.1-0.4c0,0,0-0.1-0.1-0.1c0,0-0.1,0-0.1,0.1L2.8,1.7
	C2.7,1.6,2.7,1.7,2.8,1.7L2.8,1.7z M3.6,3c0,0.3-0.3,0.6-0.6,0.6C2.7,3.6,2.4,3.4,2.4,3c0-0.3,0.3-0.6,0.6-0.6
	C3.3,2.4,3.6,2.7,3.6,3L3.6,3z M3.4,3c0-0.3-0.2-0.5-0.5-0.5C2.7,2.6,2.5,2.8,2.5,3S2.7,3.5,3,3.5C3.2,3.5,3.4,3.3,3.4,3L3.4,3z
	 M1.8,2.1H1.5v0.3h0.3V2.1z M1.5,2.9h0.3V2.6H1.5V2.9z M1.9,2.4h0.3V2.1H1.9V2.4z M1.9,2.9h0.3V2.6H1.9V2.9z M1.3,3V2H3v0.3h0.2V1.7
	c0-0.1-0.1-0.2-0.2-0.2H2.9v0.1c0,0.1-0.1,0.2-0.2,0.2c-0.1,0-0.2-0.1-0.2-0.2V1.5H1.7v0.1c0,0.1-0.1,0.2-0.2,0.2
	c-0.1,0-0.2-0.1-0.2-0.2V1.5H1.3c-0.1,0-0.2,0.1-0.2,0.2V3c0,0.1,0.1,0.2,0.2,0.2h0.9V3L1.3,3C1.3,3,1.3,3,1.3,3L1.3,3z M2.7,2.4
	V2.1H2.4v0.3H2.7z M3.2,3H3V2.8c0,0,0-0.1-0.1-0.1c0,0-0.1,0-0.1,0.1v0.3c0,0,0,0.1,0.1,0.1h0.3C3.3,3.2,3.3,3.1,3.2,3
	C3.3,3.1,3.3,3,3.2,3L3.2,3z M3.2,3"/>
</svg>
