<?xml version="1.0" encoding="utf-8"?>
<!-- Generator: Adobe Illustrator 19.0.0, SVG Export Plug-In . SVG Version: 6.00 Build 0)  -->
<svg version="1.1" id="Calque_1" xmlns="http://www.w3.org/2000/svg" xmlns:xlink="http://www.w3.org/1999/xlink" x="0px" y="0px"
	 viewBox="0 0 4.8 4.8" style="enable-background:new 0 0 4.8 4.8;" xml:space="preserve">
<style type="text/css">
	.st0{fill-rule:evenodd;clip-rule:evenodd;fill:#048BC2;}
	.st1{fill-rule:evenodd;clip-rule:evenodd;fill:#FFFFFF;}
</style>
<path class="st0" d="M2.4,0c1.3,0,2.3,1.1,2.3,2.4c0,1.3-1,2.4-2.3,2.4C1.1,4.8,0,3.7,0,2.4C0,1.1,1.1,0,2.4,0z"/>
<g>
	<g id="XMLID_98_">
		<path id="XMLID_99_" class="st1" d="M3.7,2.3c0-0.4-0.1-0.7-0.4-1C3.1,1.1,2.8,1,2.3,1s-0.7,0.1-1,0.3C1.1,1.6,1,1.9,1,2.3
			c-0.1,0-0.1,0.1-0.1,0.2v0.3C0.9,3,1,3.1,1.1,3.1h0.2C1.5,3.6,2,4,2.3,4c0.4,0,0.8-0.3,1-0.9h0.2c0.1,0,0.3-0.1,0.3-0.3V2.6
			C3.8,2.5,3.7,2.4,3.7,2.3z M2.3,3.8c-0.2,0-0.5-0.2-0.7-0.5c0.1,0.1,0.3,0.1,0.5,0.1c0,0.1,0.1,0.1,0.2,0.1c0.1,0,0.3-0.1,0.3-0.2
			c0-0.1-0.1-0.2-0.3-0.2c-0.1,0-0.2,0-0.2,0.1C1.9,3.3,1.6,3.2,1.5,3c0-0.1-0.1-0.2-0.1-0.4c0,0,0-0.1,0-0.1c0.3,0,0.5-0.3,0.5-0.6
			c0,0,0,0,0.1,0.1h0c0,0,0,0,0,0c0,0,0,0,0,0c0.2,0.3,0.6,0.3,0.7,0.4c0-0.1,0-0.1-0.1-0.2c0.3,0,0.5,0.1,0.6,0.2
			c0,0.1,0,0.1,0,0.2C3.3,3.4,2.6,3.8,2.3,3.8z M3.4,2.3c0-0.2-0.1-0.4-0.2-0.6C3,1.4,2.7,1.3,2.3,1.3S1.7,1.4,1.5,1.7
			C1.4,1.8,1.3,2,1.3,2.3H1.2c0-0.7,0.4-1.1,1.2-1.1c0.8,0,1.2,0.4,1.2,1.1H3.4z M2,2.5c-0.1,0-0.2,0.1-0.2,0.2S1.9,2.8,2,2.8
			s0.2-0.1,0.2-0.2S2,2.5,2,2.5z M2.7,2.5c-0.1,0-0.2,0.1-0.2,0.2s0.1,0.2,0.2,0.2c0.1,0,0.2-0.1,0.2-0.2S2.8,2.5,2.7,2.5z"/>
	</g>
</g>
</svg>
