<?xml version="1.0" encoding="utf-8"?>
<!-- Generator: Adobe Illustrator 19.0.0, SVG Export Plug-In . SVG Version: 6.00 Build 0)  -->
<svg version="1.1" id="Calque_1" xmlns="http://www.w3.org/2000/svg" xmlns:xlink="http://www.w3.org/1999/xlink" x="0px" y="0px"
	 viewBox="0 0 4.8 4.8" style="enable-background:new 0 0 4.8 4.8;" xml:space="preserve">
<style type="text/css">
	.st0{fill-rule:evenodd;clip-rule:evenodd;fill:#F0B31D;}
	.st1{fill:#FFFFFF;}
</style>
<path id="XMLID_101_" class="st0" d="M2.4,0c1.3,0,2.4,1.1,2.4,2.4c0,1.3-1.1,2.4-2.4,2.4C1.1,4.8,0,3.8,0,2.4C0,1.1,1.1,0,2.4,0z"
	/>
<path id="XMLID_8_" class="st1" d="M3,1.9C3,1.9,3,1.9,3,1.9C3,1.8,3,1.8,3,1.7c0-0.1,0-0.4-0.2-0.5C2.7,1.2,2.5,1.1,2.4,1.1
	c-0.1,0-0.2,0-0.3,0.1C2.1,1.2,2,1.3,2,1.3c-0.1,0-0.2,0-0.2,0.2c-0.1,0.1,0,0.2,0,0.3c0,0,0,0,0,0.1c0,0,0,0-0.1,0
	c0,0.1,0,0.1,0,0.2c0,0.2,0.1,0.2,0.2,0.2c0,0.1,0.1,0.2,0.2,0.3c0,0,0.1,0,0.1,0.1c0.1,0,0.1,0,0.2,0c0.1,0,0.1,0,0.2,0
	c0,0,0.1,0,0.1-0.1c0.1-0.1,0.1-0.2,0.2-0.3c0.1,0,0.2,0,0.2-0.2C3.1,2,3.1,1.9,3,1.9L3,1.9z M2.9,2.1c0,0.1-0.1,0.1-0.1,0.1
	c0,0,0,0,0,0c0,0-0.1,0-0.1,0c0,0.1-0.1,0.2-0.2,0.3c0,0,0,0-0.1,0c-0.1,0-0.2,0-0.3,0c0,0-0.1,0-0.1,0C2.1,2.4,2,2.3,2,2.2
	c0,0,0,0-0.1,0c0,0,0,0,0,0c0,0,0,0,0,0c0,0-0.1,0-0.1-0.1c0,0,0-0.1,0-0.1c0,0,0,0,0,0c0,0,0.1,0,0.1-0.1c0,0,0,0,0-0.1
	c0,0,0.1-0.1,0.2-0.1c0,0,0.1-0.1,0.1-0.1c0,0,0.1,0.1,0.2,0.1c0.1,0.1,0.4,0.1,0.5,0.1c0,0.1,0,0.1,0,0.1c0,0,0,0.1,0.1,0.1
	c0,0,0,0,0,0C2.9,2,2.9,2,2.9,2.1L2.9,2.1z M3.3,2.9L2.8,2.7c0,0,0,0,0,0c0,0,0,0,0,0L2.6,3l0-0.1l0-0.1c0,0,0,0,0-0.1
	c0,0,0,0-0.1,0H2.2c0,0,0,0-0.1,0c0,0,0,0,0,0.1l0,0.1l0,0.1L2.1,2.7c0,0,0,0,0,0c0,0,0,0,0,0L1.4,2.9C1.3,2.9,1.2,3.1,1.2,3.2v0.4
	c0,0,0,0.1,0.1,0.1h2.3c0,0,0.1,0,0.1-0.1V3.2C3.6,3.1,3.5,2.9,3.3,2.9L3.3,2.9z M3.3,3.4C3.3,3.5,3.3,3.5,3.3,3.4L2.8,3.5
	c0,0-0.1,0-0.1-0.1V3.2c0,0,0-0.1,0.1-0.1h0.4c0,0,0.1,0,0.1,0.1V3.4z M3.3,3.4"/>
</svg>
