<?xml version="1.0" encoding="utf-8"?>
<!-- Generator: Adobe Illustrator 19.0.0, SVG Export Plug-In . SVG Version: 6.00 Build 0)  -->
<svg version="1.1" id="Calque_1" xmlns="http://www.w3.org/2000/svg" xmlns:xlink="http://www.w3.org/1999/xlink" x="0px" y="0px"
	 viewBox="0 0 3 3.1" style="enable-background:new 0 0 3 3.1;" xml:space="preserve">
<style type="text/css">
	.st0{fill:none;stroke:#515151;stroke-width:0.1245;stroke-linejoin:round;stroke-miterlimit:10;}
</style>
<g id="XMLID_50_">
	<line id="XMLID_9_" class="st0" x1="0.6" y1="1.1" x2="0.1" y2="1.6"/>
	<line id="XMLID_8_" class="st0" x1="2" y1="2.6" x2="1.5" y2="3.1"/>
	<polyline id="XMLID_7_" class="st0" points="1,1.8 0.5,1.7 0.4,1.9 0.7,2.1 	"/>
	<polyline id="XMLID_6_" class="st0" points="1.3,2.1 1.4,2.6 1.2,2.7 1,2.3 	"/>
	<polyline id="XMLID_5_" class="st0" points="1.9,0.9 0.5,0.6 0.5,0.7 1.1,1.1 1.4,1.4 	"/>
	<polyline id="XMLID_4_" class="st0" points="2.2,1.1 2.5,2.6 2.3,2.6 2,2 1.7,1.7 	"/>
	<path id="XMLID_3_" class="st0" d="M0.7,2.4C0.8,2.5,1.2,2.2,1.4,2l1.2-1.2c0.2-0.2,0.3-0.4,0.3-0.5C2.7,0.2,2.5,0.3,2.3,0.5
		L1.1,1.7C0.9,1.9,0.6,2.3,0.7,2.4z"/>
	<line id="XMLID_2_" class="st0" x1="1.8" y1="2.1" x2="1.6" y2="2.4"/>
	<line id="XMLID_1_" class="st0" x1="1.4" y1="0.2" x2="1.1" y2="0.5"/>
</g>
</svg>
