<?xml version="1.0" encoding="utf-8"?>
<!-- Generator: Adobe Illustrator 19.0.0, SVG Export Plug-In . SVG Version: 6.00 Build 0)  -->
<svg version="1.1" id="Calque_1" xmlns="http://www.w3.org/2000/svg" xmlns:xlink="http://www.w3.org/1999/xlink" x="0px" y="0px"
	 viewBox="0 0 53.8 36.5" style="enable-background:new 0 0 53.8 36.5;" xml:space="preserve">
<style type="text/css">
	.st0{fill:#018AC1;}
</style>
<g>
	<g id="XMLID_61_">
		<path id="XMLID_62_" class="st0" d="M44.4,1.1H7.5c-2.6,0-4.6,2-4.6,4.6v23.6c0,2.6,2.1,4.6,4.6,4.6h36.9c2.6,0,4.6-2.1,4.5-4.5
			V5.7C49,3.2,46.9,1.1,44.4,1.1z M45.9,29.4c0,0.8-0.7,1.5-1.5,1.5H7.5C6.7,31,6,30.2,6,29.4V14h39.9V29.4z M45.9,8.3H6V5.7
			c0-0.8,0.7-1.5,1.5-1.5h36.8c0.8,0,1.5,0.7,1.5,1.5V8.3z M34,27.8c0.9,0,1.7-0.3,2.3-0.9c0.6,0.5,1.4,0.9,2.3,0.9
			c1.9,0,3.4-1.5,3.4-3.4c0-1.9-1.5-3.4-3.4-3.4c-0.9,0-1.7,0.3-2.3,0.9C35.7,21.4,34.9,21,34,21c-1.9,0-3.4,1.5-3.4,3.4
			C30.6,26.3,32.2,27.8,34,27.8z M10.3,19h10c0.3,0,0.5-0.3,0.5-0.5c0-0.3-0.2-0.5-0.5-0.5h-10c-0.3,0-0.5,0.2-0.5,0.5
			C9.8,18.8,10,19,10.3,19z"/>
	</g>
</g>
</svg>
