<?xml version="1.0" encoding="utf-8"?>
<!-- Generator: Adobe Illustrator 19.0.0, SVG Export Plug-In . SVG Version: 6.00 Build 0)  -->
<svg version="1.1" id="Calque_1" xmlns="http://www.w3.org/2000/svg" xmlns:xlink="http://www.w3.org/1999/xlink" x="0px" y="0px"
	 viewBox="0 0 27.8 32" style="enable-background:new 0 0 27.8 32;" xml:space="preserve">
<style type="text/css">
	.st0{fill:#5E5E5E;}
</style>
<g id="XMLID_4_">
	<path id="XMLID_62_" class="st0" d="M13.9,20.8c-1.7,0-3.1-1.4-3.1-3.1c0-2.5,3.1-5.8,3.1-5.8s3.1,3.3,3.1,5.8
		C16.9,19.4,15.6,20.8,13.9,20.8L13.9,20.8z M23.7,5.7L23.7,5.7c0-0.7-0.5-1.2-1.2-1.2H5.3C4.6,4.5,4.1,5,4.1,5.7l0,0
		c0,0.6,0.4,1.1,1,1.2v8c-0.6,0.1-1,0.6-1,1.2c0,0.6,0.4,1.1,1,1.2v8c-0.6,0.1-1,0.6-1,1.2l0,0c0,0.7,0.5,1.2,1.2,1.2h17.2
		c0.7,0,1.2-0.5,1.2-1.2l0,0c0-0.6-0.4-1.1-1-1.2v-8c0.6-0.1,1-0.6,1-1.2c0-0.6-0.4-1.1-1-1.2v-8C23.2,6.8,23.7,6.3,23.7,5.7
		L23.7,5.7z"/>
</g>
</svg>
