<?xml version="1.0" encoding="utf-8"?>
<!-- Generator: Adobe Illustrator 19.0.0, SVG Export Plug-In . SVG Version: 6.00 Build 0)  -->
<svg version="1.1" id="Calque_1" xmlns="http://www.w3.org/2000/svg" xmlns:xlink="http://www.w3.org/1999/xlink" x="0px" y="0px"
	 viewBox="0 0 53.8 36.5" style="enable-background:new 0 0 53.8 36.5;" xml:space="preserve">
<style type="text/css">
	.st0{fill:#018AC1;}
</style>
<g id="XMLID_6_">
	<path id="XMLID_4_" class="st0" d="M43.7,2.7c-0.9-0.9-4,0.2-6.1,2.2c-0.7,0.7-2.5,2.5-4.5,4.6l-3.3-0.5l0.7-0.7
		C30.9,8,31,7.3,30.6,6.7c-0.5-0.6-1.4-0.6-1.9-0.1l-2.1,2.1l-1.5-0.2L26,7.7c0.4-0.4,0.4-1,0-1.4c-0.4-0.4-1-0.4-1.4,0l-1.9,1.9
		l-7.4-1.1l-1.9,2.3l14.6,5.7c-1.8,1.9-3.2,3.5-3.8,4.2c-0.4,0.5-0.8,1-1.3,1.6l-7.9-1.4l-1.8,1.8l7.4,3c-0.1,0.1-0.2,0.3-0.2,0.4
		c-0.3,0.4-0.2,1,0.2,1.3c0.3,0.3,0.9,0.4,1.3,0.2c0.1-0.1,0.2-0.1,0.4-0.2l3,7.4l1.8-1.8l-1.4-7.9c0.6-0.4,1.1-0.8,1.6-1.3
		c0.7-0.6,2.3-2.1,4.2-3.8L37,33l2.3-1.9l-1.1-7.4l1.9-1.9c0.4-0.4,0.4-0.9,0.1-1.3c-0.4-0.5-1.1-0.6-1.5-0.1l-0.8,0.8l-0.2-1.5l2-2
		c0.5-0.5,0.6-1.2,0.1-1.8c-0.5-0.6-1.4-0.6-1.9-0.1l-0.7,0.7l-0.5-3.3c2.1-2,3.9-3.8,4.6-4.5C43.4,6.7,44.5,3.6,43.7,2.7z"/>
	<path id="XMLID_3_" class="st0" d="M20.9,28.6l-3.5,3.7c-0.1,0.2-0.1,0.4,0,0.5c0.1,0.1,0.2,0.1,0.3,0.1c0.1,0,0.2,0,0.3-0.1
		l3.5-3.7c0.1-0.2,0.1-0.4,0-0.5C21.3,28.4,21.1,28.4,20.9,28.6z"/>
	<path id="XMLID_2_" class="st0" d="M13.7,29.6l3.5-3.7c0.1-0.2,0.1-0.4,0-0.5c-0.2-0.1-0.4-0.1-0.5,0l-3.5,3.7
		c-0.1,0.2-0.1,0.4,0,0.5c0.1,0.1,0.2,0.1,0.3,0.1C13.5,29.7,13.6,29.7,13.7,29.6z"/>
	<path id="XMLID_1_" class="st0" d="M17.2,29.1c-0.2-0.2-0.4-0.1-0.5,0L12,33.8c-0.2,0.2-0.1,0.4,0,0.5c0.1,0.1,0.2,0.1,0.3,0.1
		c0.1,0,0.2,0,0.3-0.1l4.6-4.7C17.4,29.5,17.4,29.3,17.2,29.1z"/>
</g>
</svg>
