<?xml version="1.0" encoding="utf-8"?>
<!-- Generator: Adobe Illustrator 19.0.0, SVG Export Plug-In . SVG Version: 6.00 Build 0)  -->
<svg version="1.1" id="Calque_1" xmlns="http://www.w3.org/2000/svg" xmlns:xlink="http://www.w3.org/1999/xlink" x="0px" y="0px"
	 viewBox="0 0 53.8 36.5" style="enable-background:new 0 0 53.8 36.5;" xml:space="preserve">
<style type="text/css">
	.st0{fill:#018AC1;}
</style>
<path id="XMLID_80_" class="st0" d="M16.9,21.2h-5.5v8.2h5.5V21.2z M25.2,10.2h-5.5v19.2h5.5V10.2z M33.4,15.7h-5.5v13.7h5.5V15.7z
	 M41.6,7.5h-5.5v22h5.5V7.5z M44.4,31.5c0,0.4-0.3,0.7-0.7,0.7H9.4c-0.4,0-0.7-0.3-0.7-0.7V5.4c0-0.4,0.3-0.7,0.7-0.7h34.3
	c0.4,0,0.7,0.3,0.7,0.7V31.5z M47.1,5.4c0-1.9-1.5-3.4-3.4-3.4H9.4C7.5,2,6,3.5,6,5.4v26.1c0,1.9,1.5,3.4,3.4,3.4h34.3
	c1.9,0,3.4-1.5,3.4-3.4V5.4z"/>
</svg>
